{
	"asset":{
		"generator":"Khronos glTF Blender I/O v4.0.44",
		"version":"2.0"
	},
	"extensionsUsed":[
		"KHR_texture_transform"
	],
	"extensionsRequired":[
		"KHR_texture_transform"
	],
	"scene":0,
	"scenes":[
		{
			"name":"Scene",
			"nodes":[
				0,
				1
			]
		}
	],
	"nodes":[
		{
			"mesh":0,
			"name":"13_Mesh.4083_0",
			"scale":[
				0.009999999776482582,
				0.010000002570450306,
				0.010000002570450306
			],
			"translation":[
				2.8076172384317033e-05,
				0,
				-0.005799447186291218
			]
		},
		{
			"mesh":1,
			"name":"16_Mesh.4084_0",
			"scale":[
				0.009999999776482582,
				0.010000002570450306,
				0.010000002570450306
			],
			"translation":[
				2.8076172384317033e-05,
				0,
				-0.005799447186291218
			]
		}
	],
	"materials":[
		{
			"doubleSided":true,
			"name":"S806_30_SO12_patas_Material.001_4",
			"pbrMetallicRoughness":{
				"baseColorTexture":{
					"extensions":{
						"KHR_texture_transform":{
							"scale":[
								1,
								-1
							]
						}
					},
					"index":0
				},
				"metallicFactor":0,
				"roughnessFactor":0.5
			}
		},
		{
			"doubleSided":true,
			"name":"S806_30_SO12_tela_Material.001_5",
			"pbrMetallicRoughness":{
				"baseColorTexture":{
					"extensions":{
						"KHR_texture_transform":{
							"scale":[
								1,
								-1
							]
						}
					},
					"index":1
				},
				"metallicFactor":0,
				"roughnessFactor":0.858578622341156
			}
		}
	],
	"meshes":[
		{
			"name":"Mesh_0.1668",
			"primitives":[
				{
					"attributes":{
						"POSITION":0,
						"NORMAL":1,
						"TEXCOORD_0":2
					},
					"indices":3,
					"material":0
				}
			]
		},
		{
			"name":"Mesh_1.1468",
			"primitives":[
				{
					"attributes":{
						"POSITION":4,
						"NORMAL":5,
						"TEXCOORD_0":6
					},
					"indices":7,
					"material":1
				}
			]
		}
	],
	"textures":[
		{
			"sampler":0,
			"source":0
		},
		{
			"sampler":0,
			"source":1
		}
	],
	"images":[
		{
			"mimeType":"image/jpeg",
			"name":"1",
			"uri":"1.jpg"
		},
		{
			"mimeType":"image/jpeg",
			"name":"2",
			"uri":"2.jpg"
		}
	],
	"accessors":[
		{
			"bufferView":0,
			"componentType":5126,
			"count":908,
			"max":[
				87.23250579833984,
				19.22517204284668,
				35.79972457885742
			],
			"min":[
				-87.23811340332031,
				-1.7639249563217163e-06,
				-39.74974822998047
			],
			"type":"VEC3"
		},
		{
			"bufferView":1,
			"componentType":5126,
			"count":908,
			"type":"VEC3"
		},
		{
			"bufferView":2,
			"componentType":5126,
			"count":908,
			"type":"VEC2"
		},
		{
			"bufferView":3,
			"componentType":5123,
			"count":4560,
			"type":"SCALAR"
		},
		{
			"bufferView":4,
			"componentType":5126,
			"count":58395,
			"max":[
				104.72962188720703,
				84.04163360595703,
				47.15776062011719
			],
			"min":[
				-104.73523712158203,
				15.463153839111328,
				-45.99787139892578
			],
			"type":"VEC3"
		},
		{
			"bufferView":5,
			"componentType":5126,
			"count":58395,
			"type":"VEC3"
		},
		{
			"bufferView":6,
			"componentType":5126,
			"count":58395,
			"type":"VEC2"
		},
		{
			"bufferView":7,
			"componentType":5123,
			"count":307248,
			"type":"SCALAR"
		}
	],
	"bufferViews":[
		{
			"buffer":0,
			"byteLength":10896,
			"byteOffset":0,
			"target":34962
		},
		{
			"buffer":0,
			"byteLength":10896,
			"byteOffset":10896,
			"target":34962
		},
		{
			"buffer":0,
			"byteLength":7264,
			"byteOffset":21792,
			"target":34962
		},
		{
			"buffer":0,
			"byteLength":9120,
			"byteOffset":29056,
			"target":34963
		},
		{
			"buffer":0,
			"byteLength":700740,
			"byteOffset":38176,
			"target":34962
		},
		{
			"buffer":0,
			"byteLength":700740,
			"byteOffset":738916,
			"target":34962
		},
		{
			"buffer":0,
			"byteLength":467160,
			"byteOffset":1439656,
			"target":34962
		},
		{
			"buffer":0,
			"byteLength":614496,
			"byteOffset":1906816,
			"target":34963
		}
	],
	"samplers":[
		{
			"magFilter":9729,
			"minFilter":9987
		}
	],
	"buffers":[
		{
			"byteLength":2521312,
			"uri":"untitled.bin"
		}
	]
}
